<?xml version="1.0" standalone="no"?>
<!DOCTYPE svg PUBLIC "-//W3C//DTD SVG 20010904//EN"
 "http://www.w3.org/TR/2001/REC-SVG-20010904/DTD/svg10.dtd">
<svg version="1.0" xmlns="http://www.w3.org/2000/svg"
 width="712.000000pt" height="712.000000pt" viewBox="0 0 712.000000 712.000000"
 preserveAspectRatio="xMidYMid meet">

<g transform="translate(0.000000,712.000000) scale(0.100000,-0.100000)"
fill="#000000" stroke="none">
<path d="M3345 7114 c-181 -18 -256 -28 -365 -45 -241 -38 -567 -130 -747
-210 -24 -10 -45 -19 -48 -19 -25 0 -374 -176 -435 -220 -15 -11 -31 -20 -34
-20 -8 0 -242 -156 -277 -184 -14 -12 -40 -32 -59 -46 -18 -14 -38 -30 -44
-35 -6 -6 -20 -17 -32 -25 -36 -25 -164 -141 -253 -230 -275 -273 -495 -577
-670 -928 -88 -176 -121 -255 -192 -462 -70 -204 -144 -532 -131 -582 3 -14 1
-19 -6 -14 -7 4 -12 3 -12 -1 0 -5 9 -14 21 -21 12 -8 18 -9 15 -4 -3 6 0 13
6 15 8 3 9 6 2 6 -6 1 -9 12 -6 26 5 30 17 41 18 17 1 -9 4 -32 8 -50 5 -25 3
-32 -6 -26 -6 4 -2 -7 11 -24 12 -18 26 -30 31 -27 5 3 10 -1 13 -7 3 -7 4 -3
4 9 -1 12 -6 19 -12 15 -5 -3 -4 2 4 11 16 20 22 22 18 5 -1 -7 4 -12 12 -10
12 3 12 0 2 -12 -9 -11 -9 -16 0 -21 8 -6 7 -10 -2 -16 -11 -7 -11 -9 -1 -9 8
0 10 -5 6 -12 -5 -9 -4 -10 4 -3 6 6 12 27 14 48 2 39 12 48 22 21 3 -8 2 -12
-4 -9 -6 3 -10 2 -10 -4 0 -5 4 -11 10 -13 6 -2 4 -14 -5 -31 -8 -15 -10 -25
-4 -22 5 4 13 -4 18 -16 8 -23 8 -23 13 3 3 16 1 25 -6 24 -6 -2 -8 -1 -3 1 4
3 4 10 0 16 -4 7 1 6 11 -2 9 -8 15 -20 12 -27 -7 -17 11 -28 18 -12 6 14 -4
-28 -11 -49 -3 -7 0 -13 7 -13 6 0 8 5 5 10 -3 6 1 10 9 10 9 0 16 5 16 11 0
5 -4 7 -10 4 -6 -3 -7 1 -4 9 3 9 10 13 15 10 5 -3 9 10 9 30 0 19 4 56 10 83
5 26 19 98 31 158 11 61 30 144 41 185 11 41 22 84 25 95 11 44 66 211 73 220
5 6 9 15 10 20 3 11 17 51 27 75 3 8 7 17 8 20 16 51 158 335 207 415 101 163
245 362 349 480 68 78 259 268 329 329 63 54 265 209 325 248 206 134 458 266
625 327 19 7 44 17 55 21 31 13 133 47 210 69 347 100 650 138 1020 128 311
-9 518 -40 828 -126 337 -93 734 -294 1045 -529 154 -116 174 -133 333 -292
214 -212 336 -367 511 -645 218 -348 394 -875 443 -1325 25 -233 21 -588 -10
-785 -35 -225 -74 -402 -114 -517 -11 -32 -17 -58 -14 -58 3 0 0 -6 -6 -13 -6
-8 -12 -22 -14 -33 -2 -10 -8 -28 -12 -39 -4 -11 -23 -58 -41 -105 -74 -194
-189 -414 -312 -600 -41 -63 -78 -117 -82 -120 -3 -3 -17 -21 -30 -40 -133
-194 -431 -489 -680 -674 -58 -43 -113 -84 -123 -92 -9 -8 -20 -14 -23 -14 -3
0 -25 -13 -49 -30 -24 -16 -47 -30 -50 -30 -4 0 -20 -9 -35 -20 -78 -55 -398
-207 -550 -261 -148 -53 -392 -119 -510 -138 -41 -7 -88 -16 -105 -21 -16 -5
-52 -10 -78 -12 -27 -1 -50 -5 -53 -9 -3 -5 -11 -6 -19 -2 -8 3 -15 0 -15 -7
0 -6 5 -8 10 -5 5 3 10 1 10 -4 0 -17 -18 -13 -29 7 -8 14 -12 15 -23 4 -11
-11 -10 -13 2 -10 8 2 14 -2 13 -8 -1 -6 8 -10 20 -10 12 1 28 -2 35 -7 16
-12 16 -51 0 -41 -7 4 -8 3 -4 -5 4 -6 12 -8 18 -5 7 5 9 1 5 -9 -4 -10 -2
-16 6 -14 7 1 11 -4 9 -12 -2 -11 0 -12 11 -2 12 9 16 8 22 -6 5 -10 9 -21 9
-25 1 -3 5 -10 10 -15 5 -4 6 -3 2 4 -3 6 -2 14 3 18 7 4 7 15 0 33 -8 21 -8
24 2 15 6 -6 12 -29 13 -50 1 -21 5 -37 10 -35 4 2 14 -5 22 -15 7 -10 13 -13
13 -8 0 6 -6 19 -14 29 -10 13 -15 15 -15 6 0 -7 -3 -11 -6 -8 -3 4 -1 15 5
26 7 13 7 22 -1 30 -9 9 -9 15 1 24 10 11 11 9 5 -6 -5 -13 -4 -17 4 -12 7 4
9 -2 6 -20 -4 -24 -3 -26 10 -14 9 7 13 17 9 23 -4 6 -1 7 6 3 9 -6 9 -12 -3
-25 -23 -25 -20 -37 4 -16 19 17 19 17 16 -2 -3 -11 0 -26 5 -34 7 -12 9 -12
10 1 1 8 0 20 -1 25 -1 6 2 7 6 3 4 -4 14 -2 23 4 15 12 15 11 0 -7 -28 -35
-31 -45 -14 -45 9 0 14 4 11 9 -3 5 2 15 12 22 15 12 16 12 5 -1 -26 -34 19
-45 112 -26 292 60 572 155 840 286 165 81 389 211 479 278 28 21 78 58 111
82 57 42 71 53 118 93 12 10 44 37 72 60 71 60 290 280 355 357 30 36 57 67
61 70 12 11 186 248 221 300 108 165 257 446 318 600 40 100 81 214 102 280
20 66 24 79 52 182 26 94 73 343 92 488 28 206 26 639 -4 854 -57 405 -162
760 -322 1091 -286 591 -702 1068 -1250 1432 -131 87 -167 108 -335 198 -341
182 -772 313 -1220 370 -114 15 -535 28 -620 19z m-3199 -2986 c4 4 2 -1 -5
-10 -7 -10 -16 -18 -19 -18 -3 0 -2 3 1 6 3 4 2 16 -4 28 -9 19 -9 19 4 4 8
-10 18 -14 23 -10z m-13 -65 c-5 -12 -3 -14 8 -8 12 8 12 6 1 -8 -8 -9 -11
-22 -7 -29 4 -7 0 -5 -8 4 -7 10 -13 28 -11 40 3 31 3 30 14 23 5 -3 6 -13 3
-22z m62 -2 c3 -5 2 -12 -3 -15 -5 -3 -9 1 -9 9 0 17 3 19 12 6z m3767 -3826
c3 -20 3 -20 26 3 12 12 22 18 22 14 0 -4 -5 -13 -12 -20 -9 -9 -9 -12 3 -12
11 0 12 -2 0 -9 -11 -7 -10 -14 4 -37 15 -25 15 -26 1 -9 -9 11 -22 20 -28 20
-6 0 -16 14 -21 30 -5 17 -17 39 -26 49 -15 18 -15 18 6 5 12 -7 23 -22 25
-34z m74 -21 c1 -9 0 -13 -4 -10 -3 4 -7 14 -8 22 -1 9 0 13 4 10 3 -4 7 -14
8 -22z"/>
<path d="M3970 205 c0 -8 2 -15 4 -15 2 0 6 7 10 15 3 8 1 15 -4 15 -6 0 -10
-7 -10 -15z"/>
<path d="M2573 5201 c-230 -66 -377 -291 -360 -551 7 -103 34 -191 89 -283 79
-136 241 -277 373 -326 31 -12 93 -28 138 -35 95 -17 121 -38 115 -93 -4 -29
-2 -31 12 -18 9 8 30 15 47 15 26 0 38 -11 95 -87 128 -173 192 -289 219 -396
6 -26 13 -46 16 -43 2 2 -3 32 -12 67 -19 74 -68 175 -118 245 -97 137 -154
244 -129 244 4 0 22 9 40 20 l33 21 -25 30 c-14 17 -26 34 -26 39 0 4 21 34
46 66 83 107 129 225 140 363 l7 78 -74 55 c-174 131 -290 290 -369 508 -19
52 -35 79 -51 87 -34 18 -133 15 -206 -6z m-123 -233 c-31 -96 -43 -186 -37
-282 l6 -91 -40 44 c-87 97 -73 218 39 334 26 26 47 47 48 47 1 0 -6 -24 -16
-52z m-83 -374 c48 -37 98 -116 133 -212 16 -45 30 -86 30 -89 0 -15 -93 84
-124 132 -41 63 -95 195 -79 195 3 0 21 -12 40 -26z"/>
<path d="M4375 5044 c-135 -28 -167 -51 -246 -176 -26 -43 -82 -113 -123 -156
-71 -74 -75 -81 -85 -143 -16 -96 -13 -262 5 -332 18 -69 51 -138 100 -210 41
-59 42 -79 8 -104 l-26 -20 36 -21 c41 -24 43 -34 17 -94 -10 -25 -26 -93 -36
-152 -18 -119 -75 -338 -100 -386 -9 -16 -11 -30 -6 -30 18 0 68 155 96 300
15 77 39 179 66 284 11 41 9 41 92 20 24 -6 27 -4 27 20 0 40 33 66 83 66 109
0 275 71 391 166 164 136 243 310 234 520 -4 91 -8 109 -40 175 -61 129 -164
221 -289 260 -56 17 -151 23 -204 13z m55 -98 c0 -2 -29 -21 -65 -42 -63 -36
-124 -92 -172 -159 l-22 -30 -1 55 c0 90 53 150 152 169 46 9 108 13 108 7z
m-290 -232 c0 -49 -68 -264 -83 -264 -5 0 -8 39 -5 88 3 72 10 99 35 155 18
37 37 67 42 67 6 0 11 -20 11 -46z"/>
<path d="M21 3924 c0 -11 3 -14 6 -6 3 7 2 16 -1 19 -3 4 -6 -2 -5 -13z"/>
<path d="M203 3905 c0 -8 4 -12 9 -9 5 3 6 10 3 15 -9 13 -12 11 -12 -6z"/>
<path d="M257 3854 c7 -3 9 -13 6 -22 -4 -15 -3 -15 6 -2 15 22 14 30 -6 29
-10 0 -13 -3 -6 -5z"/>
<path d="M281 3744 c0 -11 3 -14 6 -6 3 7 2 16 -1 19 -3 4 -6 -2 -5 -13z"/>
<path d="M281 3654 c0 -11 3 -14 6 -6 3 7 2 16 -1 19 -3 4 -6 -2 -5 -13z"/>
<path d="M3980 2660 c-184 -67 -164 -42 -255 -318 -34 -100 -64 -179 -68 -175
-21 20 -3 307 29 480 l6 32 -185 -82 -185 -82 -37 -125 c-80 -269 -159 -609
-183 -790 l-8 -57 140 37 c77 20 141 41 143 46 1 5 11 92 23 194 20 181 55
344 85 398 14 25 15 16 10 -118 -6 -134 8 -527 19 -538 3 -2 38 4 78 15 l73
20 8 54 c33 227 105 510 148 588 l20 36 -6 -85 c-3 -47 -12 -182 -20 -300 -17
-248 -19 -366 -6 -374 7 -5 150 42 242 79 14 5 17 45 22 343 5 332 19 509 53
691 8 46 14 84 12 85 -2 2 -73 -23 -158 -54z"/>
<path d="M5245 2468 c-29 -8 -59 -30 -112 -84 l-73 -74 0 74 0 74 -117 -49
-118 -50 7 -157 c3 -86 11 -283 17 -437 6 -154 14 -325 17 -381 l6 -101 72 28
c70 27 71 28 78 71 3 24 7 107 7 186 1 78 5 142 10 142 5 0 16 -11 25 -25 40
-61 124 -52 205 21 149 134 230 509 148 689 -37 79 -79 97 -172 73z m-21 -166
c33 -38 38 -230 8 -327 -18 -57 -72 -154 -92 -165 -27 -14 -58 3 -67 38 -14
47 -6 224 12 292 20 77 39 116 73 153 30 32 43 34 66 9z"/>
<path d="M4680 2347 l-104 -42 -18 -144 c-30 -243 -79 -401 -133 -437 -53 -35
-73 25 -56 163 16 124 68 393 86 443 8 23 15 44 15 45 0 6 -231 -72 -239 -80
-13 -13 -67 -284 -82 -407 -18 -156 9 -236 94 -279 77 -40 213 -13 276 55 30
32 41 33 41 4 0 -13 9 -37 19 -54 l19 -31 98 34 c54 18 100 35 101 37 2 2 -7
24 -21 49 -38 72 -40 121 -12 342 33 264 40 345 30 345 -5 -1 -56 -20 -114
-43z"/>
<path d="M3822 281 c-11 -6 -10 -10 4 -15 9 -3 19 -4 22 -1 3 3 0 5 -7 5 -7 0
-9 5 -6 10 7 12 4 12 -13 1z"/>
<path d="M4087 114 c-3 -3 -3 -12 -1 -19 6 -14 -33 -41 -51 -36 -5 1 -4 -3 3
-11 11 -11 14 -10 22 1 7 12 11 13 25 1 12 -10 19 -10 28 -1 9 9 9 14 -1 20
-7 4 -14 18 -15 29 -1 24 -1 24 -10 16z m18 -62 c-3 -3 -11 0 -18 7 -9 10 -8
11 6 5 10 -3 15 -9 12 -12z"/>
<path d="M3945 30 c-16 -7 -17 -9 -3 -9 9 -1 20 4 23 9 7 11 7 11 -20 0z"/>
</g>
</svg>
